<?xml version="1.0"?>
<svg version="1.1" xmlns="http://www.w3.org/2000/svg" width="400" height="50" style=""><path fill="#f01163" d="M18.36,20.04c0-1.44,0.96-2.24,2.08-2.24c1.28,0,2.08,0.64,2.08,2.24c0,1.44-1.12,2.24-2.08,2.24c-1.28,0-2.08-0.8-2.08-2.24z M24.6,40.52l0,1.76l-8.32,0l0-1.76l2.72-0.8l0-11.84l-2.72-0.64l0-1.76l5.92-0.16l0,14.4z M45.1952,26.6l-0.864-3.68s-1.696-0.64-4.096-0.64c-4.32,0-6.72,3.2-6.72,9.12c0,5.76,2.88,8.32,6.88,8.32c3.36,0,6.4-2.56,6.4-2.56l1.28,2.08s-3.2,3.36-8,3.36c-6.4,0-10.24-3.84-10.24-11.04c0-7.36,4.16-12,10.72-12c3.52,0,7.2,1.6,7.2,1.6l-0.16,5.44l-2.4,0z M53.9504,30.28l-0.16-4s3.52-1.28,6.24-1.28c3.712,0,5.92,1.28,5.92,4.96l0,9.76l2.56,0.64l0,1.76l-4.96,0.16l-0.672-2.24c-1.088,1.088-3.008,2.56-5.248,2.56c-3.04,0-4.8-1.76-4.8-4.8c0-3.68,2.88-4.96,7.36-4.96l2.56,0l0-2.56c0-1.92-1.12-2.88-3.04-2.88s-3.232,0.48-3.232,0.48l-0.448,2.4l-2.08,0z M62.7504,34.92l-2.24,0c-3.2,0-4.416,0.8-4.416,2.72c0,1.44,0.896,2.4,2.336,2.4c2.4,0,4.32-2.56,4.32-2.56l0-2.56z M78.2256,25.32l0.288,2.336c0.8-0.896,2.656-2.656,4.832-2.656c1.6,0,2.88,0.48,2.88,0.48l-0.16,4.64l-2.08,0l-0.48-2.4c-2.4,0-3.936,1.568-4.64,2.496l0,9.504l3.2,0.8l0,1.76l-9.12,0l0-1.76l2.72-0.8l0-11.84l-2.72-0.64l0-1.76z M104.4208,34.28l-11.04,0c0,3.52,1.888,5.76,4.64,5.76c3.2,0,5.376-1.76,5.376-1.76l1.12,1.664s-2.976,2.656-6.816,2.656c-5.12,0-7.68-3.36-7.68-8.64c0-5.12,3.2-8.96,7.84-8.96s6.72,2.72,6.72,7.52c0,0.8-0.16,1.696-0.16,1.76z M93.5088,31.88l7.68,0c0-2.4-0.928-4.384-3.488-4.384s-4,1.984-4.192,4.384z M112.216,39.72l0-17.28l-2.72-0.64l0-1.76l6.08-0.16l3.36,0c4.8,0,7.36,2.56,7.36,6.56c0,4.96-3.2,7.52-8.64,7.52l-2.08,0l0,5.76l2.72,0.64l0,1.92l-8.8,0l0-1.92z M115.576,31.4l2.08,0c3.52,0,5.28-1.6,5.28-4.48c0-2.56-1.44-4.48-4.16-4.48l-3.2,0l0,8.96z M135.8512,25.32l0.288,2.336c0.8-0.896,2.656-2.656,4.832-2.656c1.6,0,2.88,0.48,2.88,0.48l-0.16,4.64l-2.08,0l-0.48-2.4c-2.4,0-3.936,1.568-4.64,2.496l0,9.504l3.2,0.8l0,1.76l-9.12,0l0-1.76l2.72-0.8l0-11.84l-2.72-0.64l0-1.76z M155.8064,25c4.8,0,7.52,3.36,7.52,8.48c0,5.44-3.2,9.12-8,9.12s-7.68-2.88-7.68-8.64c0-5.44,3.36-8.96,8.16-8.96z M155.6464,27.56c-3.2,0-4.64,2.08-4.64,6.24c0,3.84,1.28,6.24,4.48,6.24s4.48-2.24,4.48-6.4c0-3.52-1.12-6.08-4.32-6.08z"/><path fill="#" d=""/></svg>
